<?xml version="1.0" standalone="no"?>
<!DOCTYPE svg PUBLIC "-//W3C//DTD SVG 20010904//EN"
 "http://www.w3.org/TR/2001/REC-SVG-20010904/DTD/svg10.dtd">
<svg version="1.0" xmlns="http://www.w3.org/2000/svg"
 width="178.000000pt" height="159.000000pt" viewBox="0 0 178.000000 159.000000"
 preserveAspectRatio="xMidYMid meet">
<metadata>
Created by potrace 1.15, written by Peter Selinger 2001-2017
</metadata>
<g transform="translate(0.000000,159.000000) scale(0.100000,-0.100000)"
fill="#000000" stroke="none">
<path d="M250 1537 c-95 -32 -94 -28 -100 -351 -7 -320 -10 -337 -78 -355 -20
-6 -43 -11 -49 -11 -8 0 -13 -15 -13 -39 0 -36 2 -40 33 -46 60 -12 67 -16 84
-48 14 -27 18 -75 23 -312 4 -199 9 -286 18 -302 18 -31 60 -51 126 -59 55 -7
56 -6 56 18 0 24 -4 26 -56 30 -39 3 -61 11 -77 27 -22 21 -22 27 -22 299 -1
182 -4 286 -12 303 -6 14 -27 39 -46 56 l-35 31 35 32 c19 18 40 45 46 59 8
17 12 116 12 296 0 195 3 276 12 291 15 25 61 44 109 44 30 0 34 3 34 25 0 22
-4 25 -32 24 -18 0 -49 -6 -68 -12z"/>
<path d="M1410 1526 c0 -24 3 -26 40 -26 50 0 96 -22 107 -52 4 -13 7 -126 5
-253 -4 -281 3 -326 57 -377 l39 -36 -35 -34 c-19 -18 -40 -44 -46 -58 -7 -16
-11 -125 -11 -302 -1 -272 -1 -278 -23 -299 -16 -16 -38 -24 -77 -27 -52 -4
-56 -6 -56 -30 0 -24 1 -25 56 -18 66 8 108 28 126 59 9 16 14 103 18 302 7
319 10 336 78 354 20 6 43 11 50 11 7 0 12 15 12 39 0 36 -2 40 -32 46 -61 12
-68 16 -85 48 -15 27 -18 74 -23 307 -4 201 -9 282 -19 302 -17 33 -65 57
-131 65 -49 6 -50 5 -50 -21z"/>
<path d="M340 1245 l0 -35 445 0 c245 0 445 -3 445 -7 0 -4 -26 -33 -57 -65
l-57 -58 25 -26 26 -25 117 125 118 126 -531 0 -531 0 0 -35z"/>
<path d="M784 1121 c-102 -25 -207 -112 -251 -208 -48 -105 -41 -247 18 -342
l21 -34 25 25 25 25 -23 44 c-54 107 -29 250 61 339 146 147 387 104 480 -85
34 -67 35 -178 3 -247 -30 -66 -101 -132 -171 -158 -67 -26 -166 -24 -220 4
-32 17 -33 16 -57 -11 l-24 -28 49 -23 c69 -32 169 -39 246 -18 248 71 350
363 200 574 -80 113 -246 175 -382 143z"/>
<path d="M920 867 c-58 -62 -186 -200 -285 -307 -99 -107 -206 -223 -239 -257
l-58 -63 531 0 531 0 0 35 0 35 -445 0 c-245 0 -445 3 -445 6 0 3 109 123 243
267 134 144 261 281 282 305 l38 43 -24 24 -24 25 -105 -113z"/>
</g>
</svg>
